solid OpenSCAD_Model
  facet normal -1 0 0
    outer loop
      vertex 0 0 0
      vertex 0 0 10
      vertex 0 27 0
    endloop
  endfacet
  facet normal -1 0 0
    outer loop
      vertex 0 27 0
      vertex 0 0 10
      vertex 0 27 10
    endloop
  endfacet
  facet normal 0 -1 0
    outer loop
      vertex 0 0 10
      vertex 0 0 0
      vertex 49 0 0
    endloop
  endfacet
  facet normal 0 -1 0
    outer loop
      vertex 49 0 10
      vertex 0 0 10
      vertex 49 0 0
    endloop
  endfacet
  facet normal 0 0 -1
    outer loop
      vertex 46 21 0
      vertex 0 27 0
      vertex 49 27 0
    endloop
  endfacet
  facet normal 0 0 -1
    outer loop
      vertex 0 0 0
      vertex 0 27 0
      vertex 3 21 0
    endloop
  endfacet
  facet normal 0 0 -1
    outer loop
      vertex 0 0 0
      vertex 3 21 0
      vertex 3 3 0
    endloop
  endfacet
  facet normal 0 0 -1
    outer loop
      vertex 0 0 0
      vertex 3 3 0
      vertex 49 0 0
    endloop
  endfacet
  facet normal 0 0 -1
    outer loop
      vertex 9.5 21 0
      vertex 0 27 0
      vertex 39.5 21 0
    endloop
  endfacet
  facet normal 0 0 -1
    outer loop
      vertex 49 0 0
      vertex 46 3 0
      vertex 49 27 0
    endloop
  endfacet
  facet normal 0 0 -1
    outer loop
      vertex 39.5 21 0
      vertex 0 27 0
      vertex 46 21 0
    endloop
  endfacet
  facet normal 0 0 -1
    outer loop
      vertex 46 3 0
      vertex 46 21 0
      vertex 49 27 0
    endloop
  endfacet
  facet normal 0 0 -1
    outer loop
      vertex 3 21 0
      vertex 0 27 0
      vertex 9.5 21 0
    endloop
  endfacet
  facet normal 0 0 -1
    outer loop
      vertex 46 3 0
      vertex 49 0 0
      vertex 3 3 0
    endloop
  endfacet
  facet normal 0 1 0
    outer loop
      vertex 0 27 0
      vertex 0 27 10
      vertex 49 27 0
    endloop
  endfacet
  facet normal 0 1 0
    outer loop
      vertex 49 27 0
      vertex 0 27 10
      vertex 9.5 27 10
    endloop
  endfacet
  facet normal 0 1 0
    outer loop
      vertex 15.1981 27 20.8678
      vertex 9.5 27 10
      vertex 9.5 27 25
    endloop
  endfacet
  facet normal 0 1 0
    outer loop
      vertex 18.247 27 21.5637
      vertex 9.5 27 25
      vertex 39.5 27 25
    endloop
  endfacet
  facet normal 0 1 0
    outer loop
      vertex 15.1981 27 20.8678
      vertex 9.5 27 25
      vertex 16.555 27 21.9499
    endloop
  endfacet
  facet normal 0 1 0
    outer loop
      vertex 15.1981 27 19.1322
      vertex 9.5 27 10
      vertex 15.1981 27 20.8678
    endloop
  endfacet
  facet normal 0 1 0
    outer loop
      vertex 18.247 27 18.4363
      vertex 49 27 0
      vertex 16.555 27 18.0501
    endloop
  endfacet
  facet normal 0 1 0
    outer loop
      vertex 16.555 27 18.0501
      vertex 9.5 27 10
      vertex 15.1981 27 19.1322
    endloop
  endfacet
  facet normal 0 1 0
    outer loop
      vertex 49 27 0
      vertex 9.5 27 10
      vertex 16.555 27 18.0501
    endloop
  endfacet
  facet normal 0 1 0
    outer loop
      vertex 19 27 20
      vertex 49 27 0
      vertex 18.247 27 18.4363
    endloop
  endfacet
  facet normal 0 1 0
    outer loop
      vertex 49 27 0
      vertex 19 27 20
      vertex 39.5 27 10
    endloop
  endfacet
  facet normal 0 1 0
    outer loop
      vertex 16.555 27 21.9499
      vertex 9.5 27 25
      vertex 18.247 27 21.5637
    endloop
  endfacet
  facet normal 0 1 0
    outer loop
      vertex 31.555 27 21.9499
      vertex 18.247 27 21.5637
      vertex 39.5 27 25
    endloop
  endfacet
  facet normal 0 1 0
    outer loop
      vertex 33.247 27 18.4363
      vertex 39.5 27 10
      vertex 31.555 27 18.0501
    endloop
  endfacet
  facet normal 0 1 0
    outer loop
      vertex 30.1981 27 19.1322
      vertex 18.247 27 21.5637
      vertex 30.1981 27 20.8678
    endloop
  endfacet
  facet normal 0 1 0
    outer loop
      vertex 39.5 27 10
      vertex 18.247 27 21.5637
      vertex 30.1981 27 19.1322
    endloop
  endfacet
  facet normal 0 1 0
    outer loop
      vertex 39.5 27 10
      vertex 30.1981 27 19.1322
      vertex 31.555 27 18.0501
    endloop
  endfacet
  facet normal 0 1 0
    outer loop
      vertex 31.555 27 21.9499
      vertex 39.5 27 25
      vertex 33.247 27 21.5637
    endloop
  endfacet
  facet normal 0 1 0
    outer loop
      vertex 39.5 27 10
      vertex 33.247 27 18.4363
      vertex 39.5 27 25
    endloop
  endfacet
  facet normal 0 1 0
    outer loop
      vertex 33.247 27 18.4363
      vertex 34 27 20
      vertex 39.5 27 25
    endloop
  endfacet
  facet normal 0 1 0
    outer loop
      vertex 34 27 20
      vertex 33.247 27 21.5637
      vertex 39.5 27 25
    endloop
  endfacet
  facet normal 0 1 0
    outer loop
      vertex 30.1981 27 20.8678
      vertex 18.247 27 21.5637
      vertex 31.555 27 21.9499
    endloop
  endfacet
  facet normal 0 1 0
    outer loop
      vertex 49 27 10
      vertex 49 27 0
      vertex 39.5 27 10
    endloop
  endfacet
  facet normal 0 1 0
    outer loop
      vertex 18.247 27 21.5637
      vertex 39.5 27 10
      vertex 19 27 20
    endloop
  endfacet
  facet normal 0 0 1
    outer loop
      vertex 3 3 10
      vertex 0 0 10
      vertex 49 0 10
    endloop
  endfacet
  facet normal 0 0 1
    outer loop
      vertex 46 8 10
      vertex 46 3 10
      vertex 49 0 10
    endloop
  endfacet
  facet normal 0 0 1
    outer loop
      vertex 49 27 10
      vertex 46 21 10
      vertex 49 0 10
    endloop
  endfacet
  facet normal 0 0 1
    outer loop
      vertex 49 27 10
      vertex 39.5 27 10
      vertex 46 21 10
    endloop
  endfacet
  facet normal 0 0 1
    outer loop
      vertex 46 21 10
      vertex 46 16 10
      vertex 49 0 10
    endloop
  endfacet
  facet normal 0 0 1
    outer loop
      vertex 43 16 10
      vertex 43 8 10
      vertex 46 8 10
    endloop
  endfacet
  facet normal 0 0 1
    outer loop
      vertex 3 16 10
      vertex 3 21 10
      vertex 0 27 10
    endloop
  endfacet
  facet normal 0 0 1
    outer loop
      vertex 0 27 10
      vertex 0 0 10
      vertex 3 3 10
    endloop
  endfacet
  facet normal 0 0 1
    outer loop
      vertex 0 27 10
      vertex 3 3 10
      vertex 3 8 10
    endloop
  endfacet
  facet normal 0 0 1
    outer loop
      vertex 6 16 10
      vertex 3 16 10
      vertex 6 8 10
    endloop
  endfacet
  facet normal 0 0 1
    outer loop
      vertex 3 16 10
      vertex 3 8 10
      vertex 6 8 10
    endloop
  endfacet
  facet normal 0 0 1
    outer loop
      vertex 9.5 21 10
      vertex 9.5 27 10
      vertex 0 27 10
    endloop
  endfacet
  facet normal 0 0 1
    outer loop
      vertex 0 27 10
      vertex 3 8 10
      vertex 3 16 10
    endloop
  endfacet
  facet normal 0 0 1
    outer loop
      vertex 3 21 10
      vertex 9.5 21 10
      vertex 0 27 10
    endloop
  endfacet
  facet normal 0 0 1
    outer loop
      vertex 46 16 10
      vertex 46 8 10
      vertex 49 0 10
    endloop
  endfacet
  facet normal 0 0 1
    outer loop
      vertex 46 16 10
      vertex 43 16 10
      vertex 46 8 10
    endloop
  endfacet
  facet normal 0 0 1
    outer loop
      vertex 39.5 21 10
      vertex 46 21 10
      vertex 39.5 27 10
    endloop
  endfacet
  facet normal 0 0 1
    outer loop
      vertex 46 3 10
      vertex 3 3 10
      vertex 49 0 10
    endloop
  endfacet
  facet normal 1 0 0
    outer loop
      vertex 49 0 10
      vertex 49 0 0
      vertex 49 27 0
    endloop
  endfacet
  facet normal 1 0 0
    outer loop
      vertex 49 27 10
      vertex 49 0 10
      vertex 49 27 0
    endloop
  endfacet
  facet normal 1 0 0
    outer loop
      vertex 3 21 0
      vertex 3 21 10
      vertex 3 16 10
    endloop
  endfacet
  facet normal 1 0 0
    outer loop
      vertex 3 8 2
      vertex 3 21 0
      vertex 3 16 2
    endloop
  endfacet
  facet normal 1 0 0
    outer loop
      vertex 3 16 2
      vertex 3 21 0
      vertex 3 16 10
    endloop
  endfacet
  facet normal 1 0 0
    outer loop
      vertex 3 3 0
      vertex 3 21 0
      vertex 3 8 2
    endloop
  endfacet
  facet normal 1 0 0
    outer loop
      vertex 3 3 10
      vertex 3 8 2
      vertex 3 8 10
    endloop
  endfacet
  facet normal 1 0 0
    outer loop
      vertex 3 3 0
      vertex 3 8 2
      vertex 3 3 10
    endloop
  endfacet
  facet normal 0 -1 0
    outer loop
      vertex 3 21 10
      vertex 3 21 0
      vertex 9.5 21 0
    endloop
  endfacet
  facet normal 0 -1 0
    outer loop
      vertex 9.5 21 10
      vertex 3 21 10
      vertex 9.5 21 0
    endloop
  endfacet
  facet normal 0 -1 0
    outer loop
      vertex 9.5 21 10
      vertex 9.5 21 0
      vertex 39.5 21 0
    endloop
  endfacet
  facet normal 0 -1 0
    outer loop
      vertex 30.1981 21 19.1322
      vertex 9.5 21 10
      vertex 39.5 21 10
    endloop
  endfacet
  facet normal 0 -1 0
    outer loop
      vertex 39.5 21 10
      vertex 9.5 21 10
      vertex 39.5 21 0
    endloop
  endfacet
  facet normal 0 -1 0
    outer loop
      vertex 18.247 21 18.4363
      vertex 16.555 21 18.0501
      vertex 9.5 21 10
    endloop
  endfacet
  facet normal 0 -1 0
    outer loop
      vertex 9.5 21 25
      vertex 9.5 21 10
      vertex 15.1981 21 19.1322
    endloop
  endfacet
  facet normal 0 -1 0
    outer loop
      vertex 30.1981 21 19.1322
      vertex 30.1981 21 20.8678
      vertex 9.5 21 10
    endloop
  endfacet
  facet normal 0 -1 0
    outer loop
      vertex 9.5 21 25
      vertex 15.1981 21 19.1322
      vertex 15.1981 21 20.8678
    endloop
  endfacet
  facet normal 0 -1 0
    outer loop
      vertex 9.5 21 25
      vertex 16.555 21 21.9499
      vertex 39.5 21 25
    endloop
  endfacet
  facet normal 0 -1 0
    outer loop
      vertex 9.5 21 25
      vertex 15.1981 21 20.8678
      vertex 16.555 21 21.9499
    endloop
  endfacet
  facet normal 0 -1 0
    outer loop
      vertex 16.555 21 21.9499
      vertex 18.247 21 21.5637
      vertex 39.5 21 25
    endloop
  endfacet
  facet normal 0 -1 0
    outer loop
      vertex 19 21 20
      vertex 18.247 21 18.4363
      vertex 39.5 21 25
    endloop
  endfacet
  facet normal 0 -1 0
    outer loop
      vertex 15.1981 21 19.1322
      vertex 9.5 21 10
      vertex 16.555 21 18.0501
    endloop
  endfacet
  facet normal 0 -1 0
    outer loop
      vertex 31.555 21 18.0501
      vertex 30.1981 21 19.1322
      vertex 39.5 21 10
    endloop
  endfacet
  facet normal 0 -1 0
    outer loop
      vertex 33.247 21 21.5637
      vertex 34 21 20
      vertex 39.5 21 25
    endloop
  endfacet
  facet normal 0 -1 0
    outer loop
      vertex 18.247 21 18.4363
      vertex 9.5 21 10
      vertex 30.1981 21 20.8678
    endloop
  endfacet
  facet normal 0 -1 0
    outer loop
      vertex 18.247 21 18.4363
      vertex 31.555 21 21.9499
      vertex 39.5 21 25
    endloop
  endfacet
  facet normal 0 -1 0
    outer loop
      vertex 18.247 21 18.4363
      vertex 30.1981 21 20.8678
      vertex 31.555 21 21.9499
    endloop
  endfacet
  facet normal 0 -1 0
    outer loop
      vertex 31.555 21 21.9499
      vertex 33.247 21 21.5637
      vertex 39.5 21 25
    endloop
  endfacet
  facet normal 0 -1 0
    outer loop
      vertex 39.5 21 25
      vertex 34 21 20
      vertex 39.5 21 10
    endloop
  endfacet
  facet normal 0 -1 0
    outer loop
      vertex 34 21 20
      vertex 33.247 21 18.4363
      vertex 39.5 21 10
    endloop
  endfacet
  facet normal 0 -1 0
    outer loop
      vertex 33.247 21 18.4363
      vertex 31.555 21 18.0501
      vertex 39.5 21 10
    endloop
  endfacet
  facet normal 0 -1 0
    outer loop
      vertex 18.247 21 21.5637
      vertex 19 21 20
      vertex 39.5 21 25
    endloop
  endfacet
  facet normal 0 -1 0
    outer loop
      vertex 39.5 21 10
      vertex 39.5 21 0
      vertex 46 21 0
    endloop
  endfacet
  facet normal 0 -1 0
    outer loop
      vertex 46 21 10
      vertex 39.5 21 10
      vertex 46 21 0
    endloop
  endfacet
  facet normal -1 0 0
    outer loop
      vertex 46 8 10
      vertex 46 8 2
      vertex 46 3 10
    endloop
  endfacet
  facet normal -1 0 0
    outer loop
      vertex 46 3 0
      vertex 46 8 2
      vertex 46 21 0
    endloop
  endfacet
  facet normal -1 0 0
    outer loop
      vertex 46 21 10
      vertex 46 16 2
      vertex 46 16 10
    endloop
  endfacet
  facet normal -1 0 0
    outer loop
      vertex 46 21 0
      vertex 46 16 2
      vertex 46 21 10
    endloop
  endfacet
  facet normal -1 0 0
    outer loop
      vertex 46 8 2
      vertex 46 16 2
      vertex 46 21 0
    endloop
  endfacet
  facet normal -1 0 0
    outer loop
      vertex 46 3 10
      vertex 46 8 2
      vertex 46 3 0
    endloop
  endfacet
  facet normal 0 1 0
    outer loop
      vertex 46 3 10
      vertex 46 3 0
      vertex 3 3 10
    endloop
  endfacet
  facet normal 0 1 0
    outer loop
      vertex 3 3 10
      vertex 46 3 0
      vertex 3 3 0
    endloop
  endfacet
  facet normal 1 0 0
    outer loop
      vertex 39.5 21 25
      vertex 39.5 21 10
      vertex 39.5 27 10
    endloop
  endfacet
  facet normal 1 0 0
    outer loop
      vertex 39.5 27 25
      vertex 39.5 21 25
      vertex 39.5 27 10
    endloop
  endfacet
  facet normal 0 0 1
    outer loop
      vertex 9.5 27 25
      vertex 9.5 21 25
      vertex 39.5 21 25
    endloop
  endfacet
  facet normal 0 0 1
    outer loop
      vertex 39.5 27 25
      vertex 9.5 27 25
      vertex 39.5 21 25
    endloop
  endfacet
  facet normal -1 0 0
    outer loop
      vertex 9.5 21 10
      vertex 9.5 21 25
      vertex 9.5 27 10
    endloop
  endfacet
  facet normal -1 0 0
    outer loop
      vertex 9.5 27 10
      vertex 9.5 21 25
      vertex 9.5 27 25
    endloop
  endfacet
  facet normal 1 0 0
    outer loop
      vertex 15.1981 27 19.1322
      vertex 15.1981 27 20.8678
      vertex 15.1981 21 20.8678
    endloop
  endfacet
  facet normal 1 0 0
    outer loop
      vertex 15.1981 21 19.1322
      vertex 15.1981 27 19.1322
      vertex 15.1981 21 20.8678
    endloop
  endfacet
  facet normal 0.62349 -4.78718e-017 -0.781831
    outer loop
      vertex 16.555 27 21.9499
      vertex 16.555 21 21.9499
      vertex 15.1981 27 20.8678
    endloop
  endfacet
  facet normal 0.62349 -4.78718e-017 -0.781831
    outer loop
      vertex 15.1981 27 20.8678
      vertex 16.555 21 21.9499
      vertex 15.1981 21 20.8678
    endloop
  endfacet
  facet normal -0.222521 -5.96951e-017 -0.974928
    outer loop
      vertex 18.247 27 21.5637
      vertex 18.247 21 21.5637
      vertex 16.555 27 21.9499
    endloop
  endfacet
  facet normal -0.222521 -5.96951e-017 -0.974928
    outer loop
      vertex 16.555 27 21.9499
      vertex 18.247 21 21.5637
      vertex 16.555 21 21.9499
    endloop
  endfacet
  facet normal -0.900969 -2.65668e-017 -0.433884
    outer loop
      vertex 19 27 20
      vertex 19 21 20
      vertex 18.247 27 21.5637
    endloop
  endfacet
  facet normal -0.900969 -2.65668e-017 -0.433884
    outer loop
      vertex 18.247 27 21.5637
      vertex 19 21 20
      vertex 18.247 21 21.5637
    endloop
  endfacet
  facet normal -0.900969 2.65668e-017 0.433884
    outer loop
      vertex 19 27 20
      vertex 18.247 27 18.4363
      vertex 19 21 20
    endloop
  endfacet
  facet normal -0.900969 2.65668e-017 0.433884
    outer loop
      vertex 19 21 20
      vertex 18.247 27 18.4363
      vertex 18.247 21 18.4363
    endloop
  endfacet
  facet normal -0.222521 5.96951e-017 0.974928
    outer loop
      vertex 18.247 21 18.4363
      vertex 18.247 27 18.4363
      vertex 16.555 27 18.0501
    endloop
  endfacet
  facet normal -0.222521 5.96951e-017 0.974928
    outer loop
      vertex 16.555 21 18.0501
      vertex 18.247 21 18.4363
      vertex 16.555 27 18.0501
    endloop
  endfacet
  facet normal 0.62349 4.78718e-017 0.781831
    outer loop
      vertex 16.555 21 18.0501
      vertex 16.555 27 18.0501
      vertex 15.1981 27 19.1322
    endloop
  endfacet
  facet normal 0.62349 4.78718e-017 0.781831
    outer loop
      vertex 15.1981 21 19.1322
      vertex 16.555 21 18.0501
      vertex 15.1981 27 19.1322
    endloop
  endfacet
  facet normal 1 0 0
    outer loop
      vertex 30.1981 27 19.1322
      vertex 30.1981 27 20.8678
      vertex 30.1981 21 20.8678
    endloop
  endfacet
  facet normal 1 0 0
    outer loop
      vertex 30.1981 21 19.1322
      vertex 30.1981 27 19.1322
      vertex 30.1981 21 20.8678
    endloop
  endfacet
  facet normal 0.62349 -4.78718e-017 -0.781831
    outer loop
      vertex 31.555 27 21.9499
      vertex 31.555 21 21.9499
      vertex 30.1981 27 20.8678
    endloop
  endfacet
  facet normal 0.62349 -4.78718e-017 -0.781831
    outer loop
      vertex 30.1981 27 20.8678
      vertex 31.555 21 21.9499
      vertex 30.1981 21 20.8678
    endloop
  endfacet
  facet normal -0.222521 -5.96951e-017 -0.974928
    outer loop
      vertex 33.247 27 21.5637
      vertex 33.247 21 21.5637
      vertex 31.555 27 21.9499
    endloop
  endfacet
  facet normal -0.222521 -5.96951e-017 -0.974928
    outer loop
      vertex 31.555 27 21.9499
      vertex 33.247 21 21.5637
      vertex 31.555 21 21.9499
    endloop
  endfacet
  facet normal -0.900969 -2.65668e-017 -0.433884
    outer loop
      vertex 34 27 20
      vertex 34 21 20
      vertex 33.247 27 21.5637
    endloop
  endfacet
  facet normal -0.900969 -2.65668e-017 -0.433884
    outer loop
      vertex 33.247 27 21.5637
      vertex 34 21 20
      vertex 33.247 21 21.5637
    endloop
  endfacet
  facet normal -0.900969 2.65668e-017 0.433884
    outer loop
      vertex 34 27 20
      vertex 33.247 27 18.4363
      vertex 34 21 20
    endloop
  endfacet
  facet normal -0.900969 2.65668e-017 0.433884
    outer loop
      vertex 34 21 20
      vertex 33.247 27 18.4363
      vertex 33.247 21 18.4363
    endloop
  endfacet
  facet normal -0.222521 5.96951e-017 0.974928
    outer loop
      vertex 33.247 21 18.4363
      vertex 33.247 27 18.4363
      vertex 31.555 27 18.0501
    endloop
  endfacet
  facet normal -0.222521 5.96951e-017 0.974928
    outer loop
      vertex 31.555 21 18.0501
      vertex 33.247 21 18.4363
      vertex 31.555 27 18.0501
    endloop
  endfacet
  facet normal 0.62349 4.78718e-017 0.781831
    outer loop
      vertex 31.555 21 18.0501
      vertex 31.555 27 18.0501
      vertex 30.1981 27 19.1322
    endloop
  endfacet
  facet normal 0.62349 4.78718e-017 0.781831
    outer loop
      vertex 30.1981 21 19.1322
      vertex 31.555 21 18.0501
      vertex 30.1981 27 19.1322
    endloop
  endfacet
  facet normal 0 1 0
    outer loop
      vertex 3 16 2
      vertex 3 16 10
      vertex 6 16 2
    endloop
  endfacet
  facet normal 0 1 0
    outer loop
      vertex 6 16 2
      vertex 3 16 10
      vertex 6 16 10
    endloop
  endfacet
  facet normal 1 0 0
    outer loop
      vertex 6 8 10
      vertex 6 8 2
      vertex 6 16 2
    endloop
  endfacet
  facet normal 1 0 0
    outer loop
      vertex 6 16 10
      vertex 6 8 10
      vertex 6 16 2
    endloop
  endfacet
  facet normal 0 -1 0
    outer loop
      vertex 3 8 10
      vertex 3 8 2
      vertex 6 8 2
    endloop
  endfacet
  facet normal 0 -1 0
    outer loop
      vertex 6 8 10
      vertex 3 8 10
      vertex 6 8 2
    endloop
  endfacet
  facet normal 0 -1 0
    outer loop
      vertex 43 8 10
      vertex 43 8 2
      vertex 46 8 2
    endloop
  endfacet
  facet normal 0 -1 0
    outer loop
      vertex 46 8 10
      vertex 43 8 10
      vertex 46 8 2
    endloop
  endfacet
  facet normal -1 0 0
    outer loop
      vertex 43 8 2
      vertex 43 8 10
      vertex 43 16 2
    endloop
  endfacet
  facet normal -1 0 0
    outer loop
      vertex 43 16 2
      vertex 43 8 10
      vertex 43 16 10
    endloop
  endfacet
  facet normal 0 1 0
    outer loop
      vertex 43 16 2
      vertex 43 16 10
      vertex 46 16 2
    endloop
  endfacet
  facet normal 0 1 0
    outer loop
      vertex 46 16 2
      vertex 43 16 10
      vertex 46 16 10
    endloop
  endfacet
  facet normal 0 0 -1
    outer loop
      vertex 3 8 2
      vertex 3 16 2
      vertex 6 8 2
    endloop
  endfacet
  facet normal 0 0 -1
    outer loop
      vertex 6 8 2
      vertex 3 16 2
      vertex 6 16 2
    endloop
  endfacet
  facet normal 0 0 -1
    outer loop
      vertex 43 8 2
      vertex 43 16 2
      vertex 46 8 2
    endloop
  endfacet
  facet normal 0 0 -1
    outer loop
      vertex 46 8 2
      vertex 43 16 2
      vertex 46 16 2
    endloop
  endfacet
endsolid OpenSCAD_Model
